ISO-10303-21;
HEADER;
FILE_DESCRIPTION (( 'STEP AP214' ),
    '1' );
FILE_NAME ('Motor Holder.STEP',
    '2022-09-05T23:14:10',
    ( '' ),
    ( '' ),
    'SwSTEP 2.0',
    'SolidWorks 2021',
    '' );
FILE_SCHEMA (( 'AUTOMOTIVE_DESIGN' ));
ENDSEC;

DATA;
#1 = CARTESIAN_POINT ( 'NONE',  ( 1.750000000000000444, -3.000000000000000000, 0.000000000000000000 ) ) ;
#2 = ADVANCED_FACE ( 'NONE', ( #142 ), #397, .F. ) ;
#3 = DIRECTION ( 'NONE',  ( -0.000000000000000000, 0.000000000000000000, 1.000000000000000000 ) ) ;
#4 = DIRECTION ( 'NONE',  ( -0.000000000000000000, -0.000000000000000000, -1.000000000000000000 ) ) ;
#5 = CARTESIAN_POINT ( 'NONE',  ( 5.999999999999999112, -10.00000000000000000, 3.000000000000000000 ) ) ;
#6 = PRODUCT_RELATED_PRODUCT_CATEGORY ( 'part', '', ( #502 ) ) ;
#7 = PLANE ( 'NONE',  #301 ) ;
#8 = DIRECTION ( 'NONE',  ( -0.000000000000000000, -0.000000000000000000, -1.000000000000000000 ) ) ;
#9 = FACE_OUTER_BOUND ( 'NONE', #593, .T. ) ;
#10 = FACE_OUTER_BOUND ( 'NONE', #375, .T. ) ;
#11 = CARTESIAN_POINT ( 'NONE',  ( 7.999999999999989342, 5.046468293750707460E-15, 0.000000000000000000 ) ) ;
#12 = ORIENTED_EDGE ( 'NONE', *, *, #608, .T. ) ;
#13 = CARTESIAN_POINT ( 'NONE',  ( -1.750000000000000666, 12.50000000000000000, 0.000000000000000000 ) ) ;
#14 =( GEOMETRIC_REPRESENTATION_CONTEXT ( 3 ) GLOBAL_UNCERTAINTY_ASSIGNED_CONTEXT ( ( #220 ) ) GLOBAL_UNIT_ASSIGNED_CONTEXT ( ( #248, #393, #572 ) ) REPRESENTATION_CONTEXT ( 'NONE', 'WORKASPACE' ) );
#15 = EDGE_CURVE ( 'NONE', #177, #161, #48, .T. ) ;
#16 = DIRECTION ( 'NONE',  ( 0.000000000000000000, -1.000000000000000000, 0.000000000000000000 ) ) ;
#17 = CARTESIAN_POINT ( 'NONE',  ( 5.999999999999999112, 15.49999999999999645, 3.000000000000000000 ) ) ;
#18 = ORIENTED_EDGE ( 'NONE', *, *, #338, .T. ) ;
#19 = DIRECTION ( 'NONE',  ( -0.000000000000000000, -0.000000000000000000, -1.000000000000000000 ) ) ;
#20 = ORIENTED_EDGE ( 'NONE', *, *, #316, .F. ) ;
#21 = DIRECTION ( 'NONE',  ( 1.445602896647339410E-16, -1.000000000000000000, 0.000000000000000000 ) ) ;
#22 = ORIENTED_EDGE ( 'NONE', *, *, #151, .F. ) ;
#23 = CARTESIAN_POINT ( 'NONE',  ( -1.750000000000000000, -3.000000000000000444, 0.000000000000000000 ) ) ;
#24 = AXIS2_PLACEMENT_3D ( 'NONE', #492, #203, #140 ) ;
#25 = VECTOR ( 'NONE', #382, 1000.000000000000000 ) ;
#26 = LINE ( 'NONE', #223, #419 ) ;
#27 = VERTEX_POINT ( 'NONE', #584 ) ;
#28 = CARTESIAN_POINT ( 'NONE',  ( -3.000000000000002665, 15.49999999999999645, 3.000000000000000000 ) ) ;
#29 = DIRECTION ( 'NONE',  ( -0.000000000000000000, -0.000000000000000000, -1.000000000000000000 ) ) ;
#30 = ORIENTED_EDGE ( 'NONE', *, *, #332, .F. ) ;
#31 = CARTESIAN_POINT ( 'NONE',  ( 0.000000000000000000, 18.50000000000000355, 3.000000000000000000 ) ) ;
#32 = ORIENTED_EDGE ( 'NONE', *, *, #374, .F. ) ;
#33 = ORIENTED_EDGE ( 'NONE', *, *, #170, .T. ) ;
#34 = ORIENTED_EDGE ( 'NONE', *, *, #608, .F. ) ;
#35 = VERTEX_POINT ( 'NONE', #618 ) ;
#36 = PRESENTATION_LAYER_ASSIGNMENT (  '', '', ( #336 ) ) ;
#37 = VECTOR ( 'NONE', #112, 1000.000000000000000 ) ;
#38 = PRODUCT_DEFINITION ( 'UNKNOWN', '', #525, #358 ) ;
#39 = CARTESIAN_POINT ( 'NONE',  ( 1.750000000000000444, 0.000000000000000000, 3.000000000000000000 ) ) ;
#40 = VERTEX_POINT ( 'NONE', #1 ) ;
#41 = ORIENTED_EDGE ( 'NONE', *, *, #289, .T. ) ;
#42 = LINE ( 'NONE', #242, #388 ) ;
#43 = ORIENTED_EDGE ( 'NONE', *, *, #139, .F. ) ;
#44 = CARTESIAN_POINT ( 'NONE',  ( -1.775737858763662015E-15, 12.50000000000000000, 3.000000000000000000 ) ) ;
#45 =( NAMED_UNIT ( * ) SI_UNIT ( $, .STERADIAN. ) SOLID_ANGLE_UNIT ( ) );
#46 = CYLINDRICAL_SURFACE ( 'NONE', #188, 1.749999999999998890 ) ;
#47 =( LENGTH_UNIT ( ) NAMED_UNIT ( * ) SI_UNIT ( .MILLI., .METRE. ) );
#48 = LINE ( 'NONE', #476, #165 ) ;
#49 = VECTOR ( 'NONE', #344, 1000.000000000000000 ) ;
#50 = CARTESIAN_POINT ( 'NONE',  ( 0.000000000000000000, -6.000000000000000000, 3.000000000000000000 ) ) ;
#51 = DIRECTION ( 'NONE',  ( -1.445602896647339410E-16, 1.000000000000000000, 0.000000000000000000 ) ) ;
#52 = FACE_BOUND ( 'NONE', #331, .T. ) ;
#53 = DIRECTION ( 'NONE',  ( 0.000000000000000000, -1.000000000000000000, 0.000000000000000000 ) ) ;
#54 = DIRECTION ( 'NONE',  ( 0.000000000000000000, -1.000000000000000000, 0.000000000000000000 ) ) ;
#55 = ORIENTED_EDGE ( 'NONE', *, *, #265, .F. ) ;
#56 = MANIFOLD_SOLID_BREP ( 'Boss-Extrude1', #494 ) ;
#57 = CARTESIAN_POINT ( 'NONE',  ( 5.999999999999999112, 15.49999999999999645, 3.000000000000000000 ) ) ;
#58 = DIRECTION ( 'NONE',  ( -0.000000000000000000, 0.000000000000000000, 1.000000000000000000 ) ) ;
#59 = ORIENTED_EDGE ( 'NONE', *, *, #616, .F. ) ;
#60 = CARTESIAN_POINT ( 'NONE',  ( -8.000000000000000000, -10.00000000000000178, 3.000000000000000000 ) ) ;
#61 = CIRCLE ( 'NONE', #479, 1.749999999999998890 ) ;
#62 = DIRECTION ( 'NONE',  ( 0.000000000000000000, -0.000000000000000000, -1.000000000000000000 ) ) ;
#63 = ORIENTED_EDGE ( 'NONE', *, *, #559, .F. ) ;
#64 = LINE ( 'NONE', #103, #442 ) ;
#65 = FACE_OUTER_BOUND ( 'NONE', #212, .T. ) ;
#66 = ADVANCED_FACE ( 'NONE', ( #52, #578, #134 ), #521, .F. ) ;
#67 = DIRECTION ( 'NONE',  ( 1.000000000000000000, 0.000000000000000000, 0.000000000000000000 ) ) ;
#68 = CARTESIAN_POINT ( 'NONE',  ( -8.000000000000000000, -15.50000000000000000, 3.000000000000000000 ) ) ;
#69 = VERTEX_POINT ( 'NONE', #478 ) ;
#70 = DIRECTION ( 'NONE',  ( -0.000000000000000000, -0.000000000000000000, -1.000000000000000000 ) ) ;
#71 = CARTESIAN_POINT ( 'NONE',  ( -5.999999999999994671, -10.00000000000000000, 0.000000000000000000 ) ) ;
#72 = ORIENTED_EDGE ( 'NONE', *, *, #15, .T. ) ;
#73 = LINE ( 'NONE', #322, #257 ) ;
#74 = AXIS2_PLACEMENT_3D ( 'NONE', #249, #91, #193 ) ;
#75 = VERTEX_POINT ( 'NONE', #5 ) ;
#76 = DIRECTION ( 'NONE',  ( -0.000000000000000000, -0.000000000000000000, -1.000000000000000000 ) ) ;
#77 = ORIENTED_EDGE ( 'NONE', *, *, #378, .T. ) ;
#78 = LINE ( 'NONE', #604, #208 ) ;
#79 = ORIENTED_EDGE ( 'NONE', *, *, #15, .F. ) ;
#80 = DIRECTION ( 'NONE',  ( 0.000000000000000000, -1.000000000000000000, 0.000000000000000000 ) ) ;
#81 = AXIS2_PLACEMENT_3D ( 'NONE', #39, #330, #376 ) ;
#82 = EDGE_LOOP ( 'NONE', ( #235, #230, #570, #41 ) ) ;
#83 = COLOUR_RGB ( '',0.9372549019607843146, 0.9372549019607843146, 0.9372549019607843146 ) ;
#84 = DIRECTION ( 'NONE',  ( 1.000000000000000000, 2.168404344971009361E-16, 0.000000000000000000 ) ) ;
#85 = EDGE_CURVE ( 'NONE', #272, #75, #337, .T. ) ;
#86 = ORIENTED_EDGE ( 'NONE', *, *, #289, .F. ) ;
#87 = EDGE_CURVE ( 'NONE', #569, #279, #526, .T. ) ;
#88 = DIRECTION ( 'NONE',  ( -0.000000000000000000, -0.000000000000000000, -1.000000000000000000 ) ) ;
#89 = CARTESIAN_POINT ( 'NONE',  ( 0.000000000000000000, 0.000000000000000000, 0.000000000000000000 ) ) ;
#90 = FILL_AREA_STYLE ('',( #384 ) ) ;
#91 = DIRECTION ( 'NONE',  ( -0.000000000000000000, 0.000000000000000000, 1.000000000000000000 ) ) ;
#92 = DIRECTION ( 'NONE',  ( 1.000000000000000000, 0.000000000000000000, 0.000000000000000000 ) ) ;
#93 = CARTESIAN_POINT ( 'NONE',  ( -5.999999999999999112, 15.49999999999999645, 3.000000000000000000 ) ) ;
#94 = AXIS2_PLACEMENT_3D ( 'NONE', #28, #226, #324 ) ;
#95 = VECTOR ( 'NONE', #350, 1000.000000000000000 ) ;
#96 = DIRECTION ( 'NONE',  ( 1.000000000000000000, 0.000000000000000000, 0.000000000000000000 ) ) ;
#97 = AXIS2_PLACEMENT_3D ( 'NONE', #294, #575, #202 ) ;
#98 = CARTESIAN_POINT ( 'NONE',  ( -1.749999999999999556, -6.000000000000000000, 3.000000000000000000 ) ) ;
#99 = CIRCLE ( 'NONE', #538, 3.000000000000004441 ) ;
#100 = DIRECTION ( 'NONE',  ( 0.000000000000000000, 0.000000000000000000, 1.000000000000000000 ) ) ;
#101 = ADVANCED_FACE ( 'NONE', ( #241 ), #46, .F. ) ;
#102 = CARTESIAN_POINT ( 'NONE',  ( 2.999999999999997335, 18.50000000000000355, 3.000000000000000000 ) ) ;
#103 = CARTESIAN_POINT ( 'NONE',  ( -8.000000000000000000, 0.000000000000000000, 3.000000000000000000 ) ) ;
#104 = DIRECTION ( 'NONE',  ( -0.000000000000000000, -0.000000000000000000, -1.000000000000000000 ) ) ;
#105 = ORIENTED_EDGE ( 'NONE', *, *, #440, .T. ) ;
#106 = FACE_OUTER_BOUND ( 'NONE', #511, .T. ) ;
#107 = DIRECTION ( 'NONE',  ( 1.000000000000000000, 0.000000000000000000, 0.000000000000000000 ) ) ;
#108 = FACE_OUTER_BOUND ( 'NONE', #276, .T. ) ;
#109 = CIRCLE ( 'NONE', #465, 1.749999999999998890 ) ;
#110 = DIRECTION ( 'NONE',  ( 1.000000000000000000, 0.000000000000000000, 0.000000000000000000 ) ) ;
#111 = VECTOR ( 'NONE', #483, 1000.000000000000000 ) ;
#112 = DIRECTION ( 'NONE',  ( 1.678764654171103751E-16, -1.000000000000000000, 0.000000000000000000 ) ) ;
#113 = EDGE_LOOP ( 'NONE', ( #166, #192, #567, #520 ) ) ;
#114 = FACE_OUTER_BOUND ( 'NONE', #573, .T. ) ;
#115 = CARTESIAN_POINT ( 'NONE',  ( 2.168404344971009262E-15, -10.00000000000000000, 3.000000000000000000 ) ) ;
#116 = ORIENTED_EDGE ( 'NONE', *, *, #87, .F. ) ;
#117 = DIRECTION ( 'NONE',  ( -0.000000000000000000, -0.000000000000000000, -1.000000000000000000 ) ) ;
#118 = CARTESIAN_POINT ( 'NONE',  ( 0.000000000000000000, 18.50000000000000355, 3.000000000000000000 ) ) ;
#119 = VECTOR ( 'NONE', #29, 1000.000000000000000 ) ;
#120 =( GEOMETRIC_REPRESENTATION_CONTEXT ( 3 ) GLOBAL_UNCERTAINTY_ASSIGNED_CONTEXT ( ( #617 ) ) GLOBAL_UNIT_ASSIGNED_CONTEXT ( ( #47, #247, #391 ) ) REPRESENTATION_CONTEXT ( 'NONE', 'WORKASPACE' ) );
#121 = EDGE_LOOP ( 'NONE', ( #116, #552, #171, #201 ) ) ;
#122 = DIRECTION ( 'NONE',  ( -1.000000000000000000, 0.000000000000000000, 0.000000000000000000 ) ) ;
#123 = CARTESIAN_POINT ( 'NONE',  ( 7.999999999999996447, -9.999999999999998224, 3.000000000000000000 ) ) ;
#124 = ORIENTED_EDGE ( 'NONE', *, *, #404, .F. ) ;
#125 = CARTESIAN_POINT ( 'NONE',  ( 1.750000000000000444, 0.000000000000000000, 0.000000000000000000 ) ) ;
#126 = ORIENTED_EDGE ( 'NONE', *, *, #170, .F. ) ;
#127 = ADVANCED_FACE ( 'NONE', ( #523 ), #394, .T. ) ;
#128 = AXIS2_PLACEMENT_3D ( 'NONE', #50, #310, #441 ) ;
#129 = VERTEX_POINT ( 'NONE', #288 ) ;
#130 = ORIENTED_EDGE ( 'NONE', *, *, #295, .T. ) ;
#131 = EDGE_LOOP ( 'NONE', ( #491, #482, #43, #462 ) ) ;
#132 = CARTESIAN_POINT ( 'NONE',  ( 2.999999999999997335, 15.49999999999999645, 3.000000000000000000 ) ) ;
#133 = VERTEX_POINT ( 'NONE', #93 ) ;
#134 = FACE_OUTER_BOUND ( 'NONE', #168, .T. ) ;
#135 = EDGE_CURVE ( 'NONE', #614, #286, #427, .T. ) ;
#136 = MECHANICAL_DESIGN_GEOMETRIC_PRESENTATION_REPRESENTATION (  '', ( #258 ), #14 ) ;
#137 = ORIENTED_EDGE ( 'NONE', *, *, #440, .F. ) ;
#138 = SURFACE_STYLE_USAGE ( .BOTH. , #333 ) ;
#139 = EDGE_CURVE ( 'NONE', #405, #35, #259, .T. ) ;
#140 = DIRECTION ( 'NONE',  ( -0.000000000000000000, 0.000000000000000000, -1.000000000000000000 ) ) ;
#141 = CARTESIAN_POINT ( 'NONE',  ( 2.168404344971009262E-15, -10.00000000000000000, 3.000000000000000000 ) ) ;
#142 = FACE_OUTER_BOUND ( 'NONE', #377, .T. ) ;
#143 = CARTESIAN_POINT ( 'NONE',  ( -8.000000000000000000, -10.00000000000000178, 3.000000000000000000 ) ) ;
#144 = ADVANCED_FACE ( 'NONE', ( #239 ), #334, .T. ) ;
#145 = CARTESIAN_POINT ( 'NONE',  ( -1.750000000000000444, -2.529805069132844830E-16, 0.000000000000000000 ) ) ;
#146 = VECTOR ( 'NONE', #486, 1000.000000000000000 ) ;
#147 = VECTOR ( 'NONE', #586, 1000.000000000000000 ) ;
#148 = DIRECTION ( 'NONE',  ( -0.000000000000000000, 0.000000000000000000, 1.000000000000000000 ) ) ;
#149 = AXIS2_PLACEMENT_3D ( 'NONE', #243, #581, #474 ) ;
#150 = CARTESIAN_POINT ( 'NONE',  ( 2.168404344971009262E-15, -10.00000000000000000, 3.000000000000000000 ) ) ;
#151 = EDGE_CURVE ( 'NONE', #542, #412, #152, .T. ) ;
#152 = LINE ( 'NONE', #145, #282 ) ;
#153 = DIRECTION ( 'NONE',  ( -0.000000000000000000, 0.000000000000000000, 1.000000000000000000 ) ) ;
#154 = LINE ( 'NONE', #544, #95 ) ;
#155 = LINE ( 'NONE', #315, #553 ) ;
#156 = EDGE_CURVE ( 'NONE', #133, #365, #211, .T. ) ;
#157 = VERTEX_POINT ( 'NONE', #409 ) ;
#158 = LINE ( 'NONE', #401, #49 ) ;
#159 = CARTESIAN_POINT ( 'NONE',  ( -2.999999999999997335, 18.50000000000000355, 3.000000000000000000 ) ) ;
#160 = PRODUCT_CONTEXT ( 'NONE', #513, 'mechanical' ) ;
#161 = VERTEX_POINT ( 'NONE', #592 ) ;
#162 = CYLINDRICAL_SURFACE ( 'NONE', #189, 1.749999999999998890 ) ;
#163 = ORIENTED_EDGE ( 'NONE', *, *, #519, .T. ) ;
#164 = DIRECTION ( 'NONE',  ( 0.000000000000000000, 1.000000000000000000, 0.000000000000000000 ) ) ;
#165 = VECTOR ( 'NONE', #245, 1000.000000000000000 ) ;
#166 = ORIENTED_EDGE ( 'NONE', *, *, #363, .T. ) ;
#167 = CARTESIAN_POINT ( 'NONE',  ( -5.999999999999996447, -1.007258792502661758E-15, 3.000000000000000000 ) ) ;
#168 = EDGE_LOOP ( 'NONE', ( #577, #318, #256, #227, #216, #281, #126, #254, #205, #59 ) ) ;
#169 = ORIENTED_EDGE ( 'NONE', *, *, #574, .F. ) ;
#170 = EDGE_CURVE ( 'NONE', #609, #379, #270, .T. ) ;
#171 = ORIENTED_EDGE ( 'NONE', *, *, #182, .T. ) ;
#172 = CARTESIAN_POINT ( 'NONE',  ( -5.999999999999994671, -10.00000000000000000, 3.000000000000000000 ) ) ;
#173 = VECTOR ( 'NONE', #304, 1000.000000000000000 ) ;
#174 = ORIENTED_EDGE ( 'NONE', *, *, #461, .T. ) ;
#175 = LINE ( 'NONE', #568, #273 ) ;
#176 = VERTEX_POINT ( 'NONE', #71 ) ;
#177 = VERTEX_POINT ( 'NONE', #438 ) ;
#178 = ADVANCED_FACE ( 'NONE', ( #400 ), #162, .F. ) ;
#179 = CARTESIAN_POINT ( 'NONE',  ( 1.224646799147352468E-16, -3.000000000000000000, 0.000000000000000000 ) ) ;
#180 = ORIENTED_EDGE ( 'NONE', *, *, #351, .T. ) ;
#181 = ORIENTED_EDGE ( 'NONE', *, *, #481, .T. ) ;
#182 = EDGE_CURVE ( 'NONE', #296, #272, #99, .T. ) ;
#183 = DIRECTION ( 'NONE',  ( -0.000000000000000000, -0.000000000000000000, -1.000000000000000000 ) ) ;
#184 = AXIS2_PLACEMENT_3D ( 'NONE', #367, #277, #508 ) ;
#185 = VECTOR ( 'NONE', #237, 1000.000000000000000 ) ;
#186 = VERTEX_POINT ( 'NONE', #68 ) ;
#187 = ORIENTED_EDGE ( 'NONE', *, *, #380, .F. ) ;
#188 = AXIS2_PLACEMENT_3D ( 'NONE', #44, #8, #340 ) ;
#189 = AXIS2_PLACEMENT_3D ( 'NONE', #317, #104, #590 ) ;
#190 = FILL_AREA_STYLE_COLOUR ( '', #83 ) ;
#191 = EDGE_CURVE ( 'NONE', #207, #177, #155, .T. ) ;
#192 = ORIENTED_EDGE ( 'NONE', *, *, #519, .F. ) ;
#193 = DIRECTION ( 'NONE',  ( 1.000000000000000000, 0.000000000000000000, 0.000000000000000000 ) ) ;
#194 = AXIS2_PLACEMENT_3D ( 'NONE', #430, #3, #92 ) ;
#195 = LINE ( 'NONE', #143, #346 ) ;
#196 = PLANE ( 'NONE',  #313 ) ;
#197 = FACE_OUTER_BOUND ( 'NONE', #605, .T. ) ;
#198 = CARTESIAN_POINT ( 'NONE',  ( -8.000000000000000000, 0.000000000000000000, 3.000000000000000000 ) ) ;
#199 = EDGE_CURVE ( 'NONE', #133, #129, #26, .T. ) ;
#200 = DIRECTION ( 'NONE',  ( 1.000000000000000000, 0.000000000000000000, 0.000000000000000000 ) ) ;
#201 = ORIENTED_EDGE ( 'NONE', *, *, #374, .T. ) ;
#202 = DIRECTION ( 'NONE',  ( 1.000000000000000000, 0.000000000000000000, 0.000000000000000000 ) ) ;
#203 = DIRECTION ( 'NONE',  ( 1.000000000000000000, 0.000000000000000000, -0.000000000000000000 ) ) ;
#204 = DIRECTION ( 'NONE',  ( 1.000000000000000000, 1.445602896647339410E-16, -0.000000000000000000 ) ) ;
#205 = ORIENTED_EDGE ( 'NONE', *, *, #363, .F. ) ;
#206 = DIRECTION ( 'NONE',  ( 6.308085367188393199E-16, -1.000000000000000000, 0.000000000000000000 ) ) ;
#207 = VERTEX_POINT ( 'NONE', #347 ) ;
#208 = VECTOR ( 'NONE', #84, 1000.000000000000000 ) ;
#209 = PLANE ( 'NONE',  #300 ) ;
#210 = LINE ( 'NONE', #423, #185 ) ;
#211 = LINE ( 'NONE', #167, #37 ) ;
#212 = EDGE_LOOP ( 'NONE', ( #30, #416, #607, #407, #105, #353, #424, #236, #421, #323 ) ) ;
#213 = DIRECTION ( 'NONE',  ( -0.000000000000000000, 0.000000000000000000, 1.000000000000000000 ) ) ;
#214 = CARTESIAN_POINT ( 'NONE',  ( 1.750000000000000444, -3.000000000000000000, 3.000000000000000000 ) ) ;
#215 = CARTESIAN_POINT ( 'NONE',  ( 5.999999999999999112, 15.49999999999999645, 0.000000000000000000 ) ) ;
#216 = ORIENTED_EDGE ( 'NONE', *, *, #240, .T. ) ;
#217 = LINE ( 'NONE', #11, #515 ) ;
#218 = ORIENTED_EDGE ( 'NONE', *, *, #260, .T. ) ;
#219 = AXIS2_PLACEMENT_3D ( 'NONE', #493, #262, #447 ) ;
#220 = UNCERTAINTY_MEASURE_WITH_UNIT (LENGTH_MEASURE( 1.000000000000000082E-05 ), #248, 'distance_accuracy_value', 'NONE');
#221 = FACE_BOUND ( 'NONE', #611, .T. ) ;
#222 = ORIENTED_EDGE ( 'NONE', *, *, #328, .F. ) ;
#223 = CARTESIAN_POINT ( 'NONE',  ( -5.999999999999999112, 15.49999999999999645, 3.000000000000000000 ) ) ;
#224 = ORIENTED_EDGE ( 'NONE', *, *, #341, .F. ) ;
#225 = EDGE_CURVE ( 'NONE', #452, #133, #496, .T. ) ;
#226 = DIRECTION ( 'NONE',  ( -0.000000000000000000, -0.000000000000000000, -1.000000000000000000 ) ) ;
#227 = ORIENTED_EDGE ( 'NONE', *, *, #309, .T. ) ;
#228 = EDGE_CURVE ( 'NONE', #279, #410, #537, .T. ) ;
#229 = DIRECTION ( 'NONE',  ( 0.000000000000000000, -0.000000000000000000, 1.000000000000000000 ) ) ;
#230 = ORIENTED_EDGE ( 'NONE', *, *, #338, .F. ) ;
#231 = VECTOR ( 'NONE', #76, 1000.000000000000000 ) ;
#232 = EDGE_CURVE ( 'NONE', #296, #569, #541, .T. ) ;
#233 = ORIENTED_EDGE ( 'NONE', *, *, #380, .T. ) ;
#234 = LINE ( 'NONE', #368, #231 ) ;
#235 = ORIENTED_EDGE ( 'NONE', *, *, #240, .F. ) ;
#236 = ORIENTED_EDGE ( 'NONE', *, *, #260, .F. ) ;
#237 = DIRECTION ( 'NONE',  ( 6.308085367188393199E-16, -1.000000000000000000, 0.000000000000000000 ) ) ;
#238 = ORIENTED_EDGE ( 'NONE', *, *, #191, .F. ) ;
#239 = FACE_OUTER_BOUND ( 'NONE', #312, .T. ) ;
#240 = EDGE_CURVE ( 'NONE', #69, #269, #217, .T. ) ;
#241 = FACE_OUTER_BOUND ( 'NONE', #561, .T. ) ;
#242 = CARTESIAN_POINT ( 'NONE',  ( -5.999999999999996447, -1.007258792502661758E-15, 0.000000000000000000 ) ) ;
#243 = CARTESIAN_POINT ( 'NONE',  ( -1.775737858763662015E-15, 12.50000000000000000, 3.000000000000000000 ) ) ;
#244 = ADVANCED_FACE ( 'NONE', ( #556 ), #303, .T. ) ;
#245 = DIRECTION ( 'NONE',  ( -0.000000000000000000, -0.000000000000000000, -1.000000000000000000 ) ) ;
#246 = VECTOR ( 'NONE', #110, 1000.000000000000000 ) ;
#247 =( NAMED_UNIT ( * ) PLANE_ANGLE_UNIT ( ) SI_UNIT ( $, .RADIAN. ) );
#248 =( LENGTH_UNIT ( ) NAMED_UNIT ( * ) SI_UNIT ( .MILLI., .METRE. ) );
#249 = CARTESIAN_POINT ( 'NONE',  ( 0.000000000000000000, 0.000000000000000000, 0.000000000000000000 ) ) ;
#250 = APPLICATION_PROTOCOL_DEFINITION ( 'draft international standard', 'automotive_design', 1998, #503 ) ;
#251 = ORIENTED_EDGE ( 'NONE', *, *, #351, .F. ) ;
#252 = DIRECTION ( 'NONE',  ( -2.891205793294680298E-16, 1.000000000000000000, 0.000000000000000000 ) ) ;
#253 = SHAPE_DEFINITION_REPRESENTATION ( #458, #434 ) ;
#254 = ORIENTED_EDGE ( 'NONE', *, *, #449, .T. ) ;
#255 = CARTESIAN_POINT ( 'NONE',  ( 7.999999999999989342, 5.046468293750707460E-15, 3.000000000000000000 ) ) ;
#256 = ORIENTED_EDGE ( 'NONE', *, *, #228, .T. ) ;
#257 = VECTOR ( 'NONE', #183, 1000.000000000000000 ) ;
#258 = STYLED_ITEM ( 'NONE', ( #293 ), #434 ) ;
#259 = CIRCLE ( 'NONE', #194, 1.749999999999998890 ) ;
#260 = EDGE_CURVE ( 'NONE', #75, #157, #307, .T. ) ;
#261 = CARTESIAN_POINT ( 'NONE',  ( 4.481368979606754290E-15, -15.49999999999999822, 0.000000000000000000 ) ) ;
#262 = DIRECTION ( 'NONE',  ( -0.000000000000000000, -0.000000000000000000, -1.000000000000000000 ) ) ;
#263 = EDGE_LOOP ( 'NONE', ( #457, #169, #174, #72 ) ) ;
#264 = CARTESIAN_POINT ( 'NONE',  ( -8.000000000000000000, -15.50000000000000000, 0.000000000000000000 ) ) ;
#265 = EDGE_CURVE ( 'NONE', #35, #405, #61, .T. ) ;
#266 = CARTESIAN_POINT ( 'NONE',  ( -3.000000000000002665, 15.49999999999999645, 3.000000000000000000 ) ) ;
#267 = ORIENTED_EDGE ( 'NONE', *, *, #469, .F. ) ;
#268 = LINE ( 'NONE', #214, #516 ) ;
#269 = VERTEX_POINT ( 'NONE', #545 ) ;
#270 = LINE ( 'NONE', #501, #518 ) ;
#271 = ADVANCED_FACE ( 'NONE', ( #108 ), #311, .F. ) ;
#272 = VERTEX_POINT ( 'NONE', #17 ) ;
#273 = VECTOR ( 'NONE', #509, 1000.000000000000000 ) ;
#274 = VECTOR ( 'NONE', #445, 1000.000000000000000 ) ;
#275 =( GEOMETRIC_REPRESENTATION_CONTEXT ( 3 ) GLOBAL_UNCERTAINTY_ASSIGNED_CONTEXT ( ( #453 ) ) GLOBAL_UNIT_ASSIGNED_CONTEXT ( ( #343, #533, #45 ) ) REPRESENTATION_CONTEXT ( 'NONE', 'WORKASPACE' ) );
#276 = EDGE_LOOP ( 'NONE', ( #251, #464, #77, #130 ) ) ;
#277 = DIRECTION ( 'NONE',  ( 1.000000000000000000, 1.678764654171103751E-16, -0.000000000000000000 ) ) ;
#278 = DIRECTION ( 'NONE',  ( 1.000000000000000000, 0.000000000000000000, 0.000000000000000000 ) ) ;
#279 = VERTEX_POINT ( 'NONE', #215 ) ;
#280 = LINE ( 'NONE', #125, #595 ) ;
#281 = ORIENTED_EDGE ( 'NONE', *, *, #531, .F. ) ;
#282 = VECTOR ( 'NONE', #21, 1000.000000000000000 ) ;
#283 = ORIENTED_EDGE ( 'NONE', *, *, #589, .T. ) ;
#284 = ORIENTED_EDGE ( 'NONE', *, *, #265, .T. ) ;
#285 = CARTESIAN_POINT ( 'NONE',  ( 2.999999999999997335, 18.50000000000000355, 3.000000000000000000 ) ) ;
#286 = VERTEX_POINT ( 'NONE', #437 ) ;
#287 = LINE ( 'NONE', #98, #147 ) ;
#288 = CARTESIAN_POINT ( 'NONE',  ( -5.999999999999999112, 15.49999999999999645, 0.000000000000000000 ) ) ;
#289 = EDGE_CURVE ( 'NONE', #422, #269, #306, .T. ) ;
#290 = CIRCLE ( 'NONE', #370, 1.750000000000000000 ) ;
#291 = DIRECTION ( 'NONE',  ( -1.000000000000000000, 0.000000000000000000, 0.000000000000000000 ) ) ;
#292 = EDGE_CURVE ( 'NONE', #286, #405, #326, .T. ) ;
#293 = PRESENTATION_STYLE_ASSIGNMENT (( #299 ) ) ;
#294 = CARTESIAN_POINT ( 'NONE',  ( 2.999999999999997335, 15.49999999999999645, 0.000000000000000000 ) ) ;
#295 = EDGE_CURVE ( 'NONE', #420, #542, #73, .T. ) ;
#296 = VERTEX_POINT ( 'NONE', #285 ) ;
#297 = CARTESIAN_POINT ( 'NONE',  ( 4.481368979606754290E-15, -15.49999999999999822, 3.000000000000000000 ) ) ;
#298 = DIRECTION ( 'NONE',  ( -0.000000000000000000, 0.000000000000000000, 1.000000000000000000 ) ) ;
#299 = SURFACE_STYLE_USAGE ( .BOTH. , #389 ) ;
#300 = AXIS2_PLACEMENT_3D ( 'NONE', #297, #252, #390 ) ;
#301 = AXIS2_PLACEMENT_3D ( 'NONE', #436, #298, #200 ) ;
#302 = CARTESIAN_POINT ( 'NONE',  ( 8.000000000000000000, -15.49999999999999645, 3.000000000000000000 ) ) ;
#303 = PLANE ( 'NONE',  #475 ) ;
#304 = DIRECTION ( 'NONE',  ( 1.000000000000000000, 2.891205793294680298E-16, 0.000000000000000000 ) ) ;
#305 = DIRECTION ( 'NONE',  ( -0.000000000000000000, 0.000000000000000000, 1.000000000000000000 ) ) ;
#306 = LINE ( 'NONE', #373, #505 ) ;
#307 = LINE ( 'NONE', #115, #146 ) ;
#308 = EDGE_LOOP ( 'NONE', ( #555, #224, #180, #448 ) ) ;
#309 = EDGE_CURVE ( 'NONE', #410, #69, #78, .T. ) ;
#310 = DIRECTION ( 'NONE',  ( -0.000000000000000000, 0.000000000000000000, 1.000000000000000000 ) ) ;
#311 = CYLINDRICAL_SURFACE ( 'NONE', #219, 1.750000000000000222 ) ;
#312 = EDGE_LOOP ( 'NONE', ( #327, #34, #218, #18 ) ) ;
#313 = AXIS2_PLACEMENT_3D ( 'NONE', #480, #204, #51 ) ;
#314 = DIRECTION ( 'NONE',  ( -0.000000000000000000, -0.000000000000000000, -1.000000000000000000 ) ) ;
#315 = CARTESIAN_POINT ( 'NONE',  ( 1.750000000000000444, 0.000000000000000000, 3.000000000000000000 ) ) ;
#316 = EDGE_CURVE ( 'NONE', #420, #27, #175, .T. ) ;
#317 = CARTESIAN_POINT ( 'NONE',  ( -1.775737858763662015E-15, 12.50000000000000000, 3.000000000000000000 ) ) ;
#318 = ORIENTED_EDGE ( 'NONE', *, *, #87, .T. ) ;
#319 = ADVANCED_FACE ( 'NONE', ( #560 ), #566, .F. ) ;
#320 = LINE ( 'NONE', #123, #381 ) ;
#321 = CIRCLE ( 'NONE', #398, 1.750000000000000222 ) ;
#322 = CARTESIAN_POINT ( 'NONE',  ( -1.750000000000000000, -3.000000000000000444, 3.000000000000000000 ) ) ;
#323 = ORIENTED_EDGE ( 'NONE', *, *, #182, .F. ) ;
#324 = DIRECTION ( 'NONE',  ( -1.000000000000000000, 0.000000000000000000, 0.000000000000000000 ) ) ;
#325 = ORIENTED_EDGE ( 'NONE', *, *, #546, .F. ) ;
#326 = LINE ( 'NONE', #612, #119 ) ;
#327 = ORIENTED_EDGE ( 'NONE', *, *, #309, .F. ) ;
#328 = EDGE_CURVE ( 'NONE', #614, #35, #234, .T. ) ;
#329 = AXIS2_PLACEMENT_3D ( 'NONE', #539, #153, #96 ) ;
#330 = DIRECTION ( 'NONE',  ( 1.000000000000000000, 0.000000000000000000, -0.000000000000000000 ) ) ;
#331 = EDGE_LOOP ( 'NONE', ( #357, #284 ) ) ;
#332 = EDGE_CURVE ( 'NONE', #452, #296, #459, .T. ) ;
#333 = SURFACE_SIDE_STYLE ('',( #529 ) ) ;
#334 = PLANE ( 'NONE',  #551 ) ;
#335 = VECTOR ( 'NONE', #411, 1000.000000000000000 ) ;
#336 = STYLED_ITEM ( 'NONE', ( #432 ), #56 ) ;
#337 = LINE ( 'NONE', #429, #111 ) ;
#338 = EDGE_CURVE ( 'NONE', #157, #69, #320, .T. ) ;
#339 = CARTESIAN_POINT ( 'NONE',  ( -5.999999999999994671, -10.00000000000000000, 3.000000000000000000 ) ) ;
#340 = DIRECTION ( 'NONE',  ( -1.000000000000000000, 0.000000000000000000, 0.000000000000000000 ) ) ;
#341 = EDGE_CURVE ( 'NONE', #40, #161, #280, .T. ) ;
#342 = FACE_OUTER_BOUND ( 'NONE', #500, .T. ) ;
#343 =( LENGTH_UNIT ( ) NAMED_UNIT ( * ) SI_UNIT ( .MILLI., .METRE. ) );
#344 = DIRECTION ( 'NONE',  ( 1.000000000000000000, 2.168404344971009361E-16, 0.000000000000000000 ) ) ;
#345 = AXIS2_PLACEMENT_3D ( 'NONE', #89, #100, #67 ) ;
#346 = VECTOR ( 'NONE', #4, 1000.000000000000000 ) ;
#347 = CARTESIAN_POINT ( 'NONE',  ( 1.750000000000000444, -3.000000000000000000, 3.000000000000000000 ) ) ;
#348 = AXIS2_PLACEMENT_3D ( 'NONE', #132, #88, #291 ) ;
#349 = CARTESIAN_POINT ( 'NONE',  ( 0.000000000000000000, -6.000000000000000000, 0.000000000000000000 ) ) ;
#350 = DIRECTION ( 'NONE',  ( -0.000000000000000000, -0.000000000000000000, -1.000000000000000000 ) ) ;
#351 = EDGE_CURVE ( 'NONE', #40, #542, #321, .T. ) ;
#352 = DIRECTION ( 'NONE',  ( -6.308085367188392213E-16, 1.000000000000000000, 0.000000000000000000 ) ) ;
#353 = ORIENTED_EDGE ( 'NONE', *, *, #469, .T. ) ;
#354 = CARTESIAN_POINT ( 'NONE',  ( 5.999999999999999112, -10.00000000000000000, 0.000000000000000000 ) ) ;
#355 = CARTESIAN_POINT ( 'NONE',  ( -8.000000000000000000, -10.00000000000000178, 0.000000000000000000 ) ) ;
#356 = DIRECTION ( 'NONE',  ( -0.000000000000000000, -0.000000000000000000, -1.000000000000000000 ) ) ;
#357 = ORIENTED_EDGE ( 'NONE', *, *, #139, .T. ) ;
#358 = PRODUCT_DEFINITION_CONTEXT ( 'detailed design', #503, 'design' ) ;
#359 = LINE ( 'NONE', #548, #246 ) ;
#360 = ORIENTED_EDGE ( 'NONE', *, *, #332, .T. ) ;
#361 = DIRECTION ( 'NONE',  ( 1.000000000000000000, 0.000000000000000000, 0.000000000000000000 ) ) ;
#362 = ORIENTED_EDGE ( 'NONE', *, *, #531, .T. ) ;
#363 = EDGE_CURVE ( 'NONE', #129, #176, #42, .T. ) ;
#364 = DIRECTION ( 'NONE',  ( -0.000000000000000000, 0.000000000000000000, 1.000000000000000000 ) ) ;
#365 = VERTEX_POINT ( 'NONE', #339 ) ;
#366 = ADVANCED_FACE ( 'NONE', ( #197 ), #392, .T. ) ;
#367 = CARTESIAN_POINT ( 'NONE',  ( -5.999999999999996447, -1.007258792502661758E-15, 3.000000000000000000 ) ) ;
#368 = CARTESIAN_POINT ( 'NONE',  ( 1.749999999999997113, 12.50000000000000000, 3.000000000000000000 ) ) ;
#369 = EDGE_LOOP ( 'NONE', ( #387, #79, #238, #450 ) ) ;
#370 = AXIS2_PLACEMENT_3D ( 'NONE', #349, #148, #484 ) ;
#371 = COLOUR_RGB ( '',0.9372549019607843146, 0.9372549019607843146, 0.9372549019607843146 ) ;
#372 = LINE ( 'NONE', #172, #535 ) ;
#373 = CARTESIAN_POINT ( 'NONE',  ( 8.000000000000000000, -15.49999999999999645, 3.000000000000000000 ) ) ;
#374 = EDGE_CURVE ( 'NONE', #272, #279, #536, .T. ) ;
#375 = EDGE_LOOP ( 'NONE', ( #22, #510, #431, #557 ) ) ;
#376 = DIRECTION ( 'NONE',  ( -0.000000000000000000, 0.000000000000000000, -1.000000000000000000 ) ) ;
#377 = EDGE_LOOP ( 'NONE', ( #33, #495, #137, #233 ) ) ;
#378 = EDGE_CURVE ( 'NONE', #207, #420, #615, .T. ) ;
#379 = VERTEX_POINT ( 'NONE', #264 ) ;
#380 = EDGE_CURVE ( 'NONE', #470, #609, #195, .T. ) ;
#381 = VECTOR ( 'NONE', #610, 1000.000000000000000 ) ;
#382 = DIRECTION ( 'NONE',  ( 1.000000000000000000, 2.168404344971009361E-16, 0.000000000000000000 ) ) ;
#383 = ORIENTED_EDGE ( 'NONE', *, *, #85, .T. ) ;
#384 = FILL_AREA_STYLE_COLOUR ( '', #371 ) ;
#385 = FILL_AREA_STYLE ('',( #190 ) ) ;
#386 = ORIENTED_EDGE ( 'NONE', *, *, #232, .T. ) ;
#387 = ORIENTED_EDGE ( 'NONE', *, *, #341, .T. ) ;
#388 = VECTOR ( 'NONE', #580, 1000.000000000000000 ) ;
#389 = SURFACE_SIDE_STYLE ('',( #435 ) ) ;
#390 = DIRECTION ( 'NONE',  ( -1.000000000000000000, -2.891205793294680298E-16, 0.000000000000000000 ) ) ;
#391 =( NAMED_UNIT ( * ) SI_UNIT ( $, .STERADIAN. ) SOLID_ANGLE_UNIT ( ) );
#392 = PLANE ( 'NONE',  #579 ) ;
#393 =( NAMED_UNIT ( * ) PLANE_ANGLE_UNIT ( ) SI_UNIT ( $, .RADIAN. ) );
#394 = CYLINDRICAL_SURFACE ( 'NONE', #348, 3.000000000000003997 ) ;
#395 = ORIENTED_EDGE ( 'NONE', *, *, #191, .T. ) ;
#396 = DIRECTION ( 'NONE',  ( 1.000000000000000000, 0.000000000000000000, 0.000000000000000000 ) ) ;
#397 = PLANE ( 'NONE',  #597 ) ;
#398 = AXIS2_PLACEMENT_3D ( 'NONE', #179, #522, #471 ) ;
#399 = CARTESIAN_POINT ( 'NONE',  ( 2.999999999999997335, 15.49999999999999645, 3.000000000000000000 ) ) ;
#400 = FACE_OUTER_BOUND ( 'NONE', #131, .T. ) ;
#401 = CARTESIAN_POINT ( 'NONE',  ( 2.168404344971009262E-15, -10.00000000000000000, 0.000000000000000000 ) ) ;
#402 = LINE ( 'NONE', #159, #425 ) ;
#403 = DIRECTION ( 'NONE',  ( -1.000000000000000000, -2.168404344971009361E-16, 0.000000000000000000 ) ) ;
#404 = EDGE_CURVE ( 'NONE', #286, #614, #109, .T. ) ;
#405 = VERTEX_POINT ( 'NONE', #13 ) ;
#406 = CARTESIAN_POINT ( 'NONE',  ( 2.168404344971009262E-15, -10.00000000000000000, 3.000000000000000000 ) ) ;
#407 = ORIENTED_EDGE ( 'NONE', *, *, #589, .F. ) ;
#408 = LINE ( 'NONE', #554, #335 ) ;
#409 = CARTESIAN_POINT ( 'NONE',  ( 7.999999999999996447, -9.999999999999998224, 3.000000000000000000 ) ) ;
#410 = VERTEX_POINT ( 'NONE', #354 ) ;
#411 = DIRECTION ( 'NONE',  ( -0.000000000000000000, -0.000000000000000000, -1.000000000000000000 ) ) ;
#412 = VERTEX_POINT ( 'NONE', #497 ) ;
#413 = ORIENTED_EDGE ( 'NONE', *, *, #378, .F. ) ;
#414 = CYLINDRICAL_SURFACE ( 'NONE', #507, 1.750000000000000000 ) ;
#415 = EDGE_CURVE ( 'NONE', #412, #161, #290, .T. ) ;
#416 = ORIENTED_EDGE ( 'NONE', *, *, #225, .T. ) ;
#417 = AXIS2_PLACEMENT_3D ( 'NONE', #31, #164, #229 ) ;
#418 = PRESENTATION_LAYER_ASSIGNMENT (  '', '', ( #258 ) ) ;
#419 = VECTOR ( 'NONE', #356, 1000.000000000000000 ) ;
#420 = VERTEX_POINT ( 'NONE', #488 ) ;
#421 = ORIENTED_EDGE ( 'NONE', *, *, #85, .F. ) ;
#422 = VERTEX_POINT ( 'NONE', #302 ) ;
#423 = CARTESIAN_POINT ( 'NONE',  ( 7.999999999999989342, 5.046468293750707460E-15, 3.000000000000000000 ) ) ;
#424 = ORIENTED_EDGE ( 'NONE', *, *, #582, .F. ) ;
#425 = VECTOR ( 'NONE', #117, 1000.000000000000000 ) ;
#426 = DIRECTION ( 'NONE',  ( -1.000000000000000000, -2.168404344971009361E-16, 0.000000000000000000 ) ) ;
#427 = CIRCLE ( 'NONE', #149, 1.749999999999998890 ) ;
#428 = DIRECTION ( 'NONE',  ( -0.000000000000000000, 0.000000000000000000, -1.000000000000000000 ) ) ;
#429 = CARTESIAN_POINT ( 'NONE',  ( 5.999999999999999112, 0.000000000000000000, 3.000000000000000000 ) ) ;
#430 = CARTESIAN_POINT ( 'NONE',  ( -1.775737858763662015E-15, 12.50000000000000000, 0.000000000000000000 ) ) ;
#431 = ORIENTED_EDGE ( 'NONE', *, *, #316, .T. ) ;
#432 = PRESENTATION_STYLE_ASSIGNMENT (( #138 ) ) ;
#433 = CARTESIAN_POINT ( 'NONE',  ( -1.775737858763662015E-15, 12.50000000000000000, 3.000000000000000000 ) ) ;
#434 = ADVANCED_BREP_SHAPE_REPRESENTATION ( 'Motor Holder', ( #56, #345 ), #120 ) ;
#435 = SURFACE_STYLE_FILL_AREA ( #90 ) ;
#436 = CARTESIAN_POINT ( 'NONE',  ( 0.000000000000000000, 0.000000000000000000, 3.000000000000000000 ) ) ;
#437 = CARTESIAN_POINT ( 'NONE',  ( -1.750000000000000666, 12.50000000000000000, 3.000000000000000000 ) ) ;
#438 = CARTESIAN_POINT ( 'NONE',  ( 1.750000000000000444, -6.000000000000000000, 3.000000000000000000 ) ) ;
#439 = ORIENTED_EDGE ( 'NONE', *, *, #292, .T. ) ;
#440 = EDGE_CURVE ( 'NONE', #470, #186, #64, .T. ) ;
#441 = DIRECTION ( 'NONE',  ( 1.000000000000000000, 0.000000000000000000, 0.000000000000000000 ) ) ;
#442 = VECTOR ( 'NONE', #53, 1000.000000000000000 ) ;
#443 = DIRECTION ( 'NONE',  ( 1.000000000000000000, 0.000000000000000000, 0.000000000000000000 ) ) ;
#444 = VERTEX_POINT ( 'NONE', #543 ) ;
#445 = DIRECTION ( 'NONE',  ( 1.000000000000000000, 2.891205793294680298E-16, 0.000000000000000000 ) ) ;
#446 = ADVANCED_FACE ( 'NONE', ( #106 ), #209, .F. ) ;
#447 = DIRECTION ( 'NONE',  ( -1.000000000000000000, 0.000000000000000000, 0.000000000000000000 ) ) ;
#448 = ORIENTED_EDGE ( 'NONE', *, *, #151, .T. ) ;
#449 = EDGE_CURVE ( 'NONE', #609, #176, #158, .T. ) ;
#450 = ORIENTED_EDGE ( 'NONE', *, *, #524, .T. ) ;
#451 = DIRECTION ( 'NONE',  ( -0.000000000000000000, -0.000000000000000000, -1.000000000000000000 ) ) ;
#452 = VERTEX_POINT ( 'NONE', #583 ) ;
#453 = UNCERTAINTY_MEASURE_WITH_UNIT (LENGTH_MEASURE( 1.000000000000000082E-05 ), #343, 'distance_accuracy_value', 'NONE');
#454 = ORIENTED_EDGE ( 'NONE', *, *, #135, .F. ) ;
#455 = DIRECTION ( 'NONE',  ( 0.000000000000000000, -1.000000000000000000, 0.000000000000000000 ) ) ;
#456 = VECTOR ( 'NONE', #54, 1000.000000000000000 ) ;
#457 = ORIENTED_EDGE ( 'NONE', *, *, #415, .F. ) ;
#458 = PRODUCT_DEFINITION_SHAPE ( 'NONE', 'NONE',  #38 ) ;
#459 = LINE ( 'NONE', #118, #571 ) ;
#460 = EDGE_LOOP ( 'NONE', ( #506, #20, #413, #395 ) ) ;
#461 = EDGE_CURVE ( 'NONE', #27, #177, #606, .T. ) ;
#462 = ORIENTED_EDGE ( 'NONE', *, *, #292, .F. ) ;
#463 = DIRECTION ( 'NONE',  ( -0.000000000000000000, -0.000000000000000000, -1.000000000000000000 ) ) ;
#464 = ORIENTED_EDGE ( 'NONE', *, *, #524, .F. ) ;
#465 = AXIS2_PLACEMENT_3D ( 'NONE', #433, #213, #396 ) ;
#466 = AXIS2_PLACEMENT_3D ( 'NONE', #266, #364, #361 ) ;
#467 = ADVANCED_FACE ( 'NONE', ( #9 ), #534, .T. ) ;
#468 = ORIENTED_EDGE ( 'NONE', *, *, #225, .F. ) ;
#469 = EDGE_CURVE ( 'NONE', #186, #422, #585, .T. ) ;
#470 = VERTEX_POINT ( 'NONE', #60 ) ;
#471 = DIRECTION ( 'NONE',  ( 1.000000000000000000, 0.000000000000000000, 0.000000000000000000 ) ) ;
#472 = CARTESIAN_POINT ( 'NONE',  ( -3.000000000000002665, 15.49999999999999645, 0.000000000000000000 ) ) ;
#473 = ORIENTED_EDGE ( 'NONE', *, *, #228, .F. ) ;
#474 = DIRECTION ( 'NONE',  ( 1.000000000000000000, 0.000000000000000000, 0.000000000000000000 ) ) ;
#475 = AXIS2_PLACEMENT_3D ( 'NONE', #255, #588, #352 ) ;
#476 = CARTESIAN_POINT ( 'NONE',  ( 1.750000000000000444, -6.000000000000000000, 3.000000000000000000 ) ) ;
#477 = ADVANCED_FACE ( 'NONE', ( #342 ), #530, .T. ) ;
#478 = CARTESIAN_POINT ( 'NONE',  ( 7.999999999999996447, -9.999999999999998224, 0.000000000000000000 ) ) ;
#479 = AXIS2_PLACEMENT_3D ( 'NONE', #490, #58, #443 ) ;
#480 = CARTESIAN_POINT ( 'NONE',  ( -1.750000000000000444, -2.529805069132844830E-16, 3.000000000000000000 ) ) ;
#481 = EDGE_CURVE ( 'NONE', #186, #379, #408, .T. ) ;
#482 = ORIENTED_EDGE ( 'NONE', *, *, #328, .T. ) ;
#483 = DIRECTION ( 'NONE',  ( 0.000000000000000000, -1.000000000000000000, 0.000000000000000000 ) ) ;
#484 = DIRECTION ( 'NONE',  ( 1.000000000000000000, 0.000000000000000000, 0.000000000000000000 ) ) ;
#485 = APPLICATION_PROTOCOL_DEFINITION ( 'draft international standard', 'automotive_design', 1998, #513 ) ;
#486 = DIRECTION ( 'NONE',  ( 1.000000000000000000, 2.168404344971009361E-16, 0.000000000000000000 ) ) ;
#487 = ADVANCED_FACE ( 'NONE', ( #600 ), #594, .F. ) ;
#488 = CARTESIAN_POINT ( 'NONE',  ( -1.750000000000000000, -3.000000000000000444, 3.000000000000000000 ) ) ;
#489 = CARTESIAN_POINT ( 'NONE',  ( 2.999999999999997335, 18.50000000000000355, 0.000000000000000000 ) ) ;
#490 = CARTESIAN_POINT ( 'NONE',  ( -1.775737858763662015E-15, 12.50000000000000000, 0.000000000000000000 ) ) ;
#491 = ORIENTED_EDGE ( 'NONE', *, *, #404, .T. ) ;
#492 = CARTESIAN_POINT ( 'NONE',  ( 5.999999999999999112, 0.000000000000000000, 3.000000000000000000 ) ) ;
#493 = CARTESIAN_POINT ( 'NONE',  ( 1.224646799147352468E-16, -3.000000000000000000, 3.000000000000000000 ) ) ;
#494 = CLOSED_SHELL ( 'NONE', ( #178, #512, #477, #487, #366, #2, #446, #244, #144, #467, #528, #576, #271, #319, #101, #127, #562, #66 ) ) ;
#495 = ORIENTED_EDGE ( 'NONE', *, *, #481, .F. ) ;
#496 = CIRCLE ( 'NONE', #466, 3.000000000000001332 ) ;
#497 = CARTESIAN_POINT ( 'NONE',  ( -1.749999999999999556, -6.000000000000000000, 0.000000000000000000 ) ) ;
#498 = FACE_BOUND ( 'NONE', #460, .T. ) ;
#499 = CARTESIAN_POINT ( 'NONE',  ( 5.999999999999999112, 0.000000000000000000, 0.000000000000000000 ) ) ;
#500 = EDGE_LOOP ( 'NONE', ( #599, #601, #468, #514 ) ) ;
#501 = CARTESIAN_POINT ( 'NONE',  ( -8.000000000000000000, 0.000000000000000000, 0.000000000000000000 ) ) ;
#502 = PRODUCT ( 'Motor Holder', 'Motor Holder', '', ( #160 ) ) ;
#503 = APPLICATION_CONTEXT ( 'automotive_design' ) ;
#504 = ORIENTED_EDGE ( 'NONE', *, *, #135, .T. ) ;
#505 = VECTOR ( 'NONE', #463, 1000.000000000000000 ) ;
#506 = ORIENTED_EDGE ( 'NONE', *, *, #461, .F. ) ;
#507 = AXIS2_PLACEMENT_3D ( 'NONE', #602, #558, #122 ) ;
#508 = DIRECTION ( 'NONE',  ( -1.678764654171103751E-16, 1.000000000000000000, 0.000000000000000000 ) ) ;
#509 = DIRECTION ( 'NONE',  ( 1.445602896647339410E-16, -1.000000000000000000, 0.000000000000000000 ) ) ;
#510 = ORIENTED_EDGE ( 'NONE', *, *, #295, .F. ) ;
#511 = EDGE_LOOP ( 'NONE', ( #362, #86, #267, #181 ) ) ;
#512 = ADVANCED_FACE ( 'NONE', ( #114 ), #598, .T. ) ;
#513 = APPLICATION_CONTEXT ( 'automotive_design' ) ;
#514 = ORIENTED_EDGE ( 'NONE', *, *, #546, .T. ) ;
#515 = VECTOR ( 'NONE', #206, 1000.000000000000000 ) ;
#516 = VECTOR ( 'NONE', #19, 1000.000000000000000 ) ;
#517 = MECHANICAL_DESIGN_GEOMETRIC_PRESENTATION_REPRESENTATION (  '', ( #336 ), #275 ) ;
#518 = VECTOR ( 'NONE', #16, 1000.000000000000000 ) ;
#519 = EDGE_CURVE ( 'NONE', #365, #176, #372, .T. ) ;
#520 = ORIENTED_EDGE ( 'NONE', *, *, #199, .T. ) ;
#521 = PLANE ( 'NONE',  #74 ) ;
#522 = DIRECTION ( 'NONE',  ( -0.000000000000000000, 0.000000000000000000, 1.000000000000000000 ) ) ;
#523 = FACE_OUTER_BOUND ( 'NONE', #121, .T. ) ;
#524 = EDGE_CURVE ( 'NONE', #207, #40, #268, .T. ) ;
#525 = PRODUCT_DEFINITION_FORMATION_WITH_SPECIFIED_SOURCE ( 'ANY', '', #502, .NOT_KNOWN. ) ;
#526 = CIRCLE ( 'NONE', #97, 3.000000000000004441 ) ;
#527 = DIRECTION ( 'NONE',  ( 1.000000000000000000, 0.000000000000000000, -0.000000000000000000 ) ) ;
#528 = ADVANCED_FACE ( 'NONE', ( #565 ), #414, .F. ) ;
#529 = SURFACE_STYLE_FILL_AREA ( #385 ) ;
#530 = CYLINDRICAL_SURFACE ( 'NONE', #94, 3.000000000000000888 ) ;
#531 = EDGE_CURVE ( 'NONE', #379, #269, #591, .T. ) ;
#532 = DIRECTION ( 'NONE',  ( -2.168404344971009361E-16, 1.000000000000000000, 0.000000000000000000 ) ) ;
#533 =( NAMED_UNIT ( * ) PLANE_ANGLE_UNIT ( ) SI_UNIT ( $, .RADIAN. ) );
#534 = PLANE ( 'NONE',  #24 ) ;
#535 = VECTOR ( 'NONE', #70, 1000.000000000000000 ) ;
#536 = LINE ( 'NONE', #57, #563 ) ;
#537 = LINE ( 'NONE', #499, #456 ) ;
#538 = AXIS2_PLACEMENT_3D ( 'NONE', #399, #62, #550 ) ;
#539 = CARTESIAN_POINT ( 'NONE',  ( 1.224646799147352468E-16, -3.000000000000000000, 3.000000000000000000 ) ) ;
#540 = CARTESIAN_POINT ( 'NONE',  ( 1.749999999999997113, 12.50000000000000000, 3.000000000000000000 ) ) ;
#541 = LINE ( 'NONE', #102, #549 ) ;
#542 = VERTEX_POINT ( 'NONE', #23 ) ;
#543 = CARTESIAN_POINT ( 'NONE',  ( -2.999999999999997335, 18.50000000000000355, 0.000000000000000000 ) ) ;
#544 = CARTESIAN_POINT ( 'NONE',  ( 5.999999999999999112, -10.00000000000000000, 3.000000000000000000 ) ) ;
#545 = CARTESIAN_POINT ( 'NONE',  ( 8.000000000000000000, -15.49999999999999645, 0.000000000000000000 ) ) ;
#546 = EDGE_CURVE ( 'NONE', #452, #444, #402, .T. ) ;
#547 = CARTESIAN_POINT ( 'NONE',  ( 4.481368979606754290E-15, -15.49999999999999822, 3.000000000000000000 ) ) ;
#548 = CARTESIAN_POINT ( 'NONE',  ( -0.000000000000000000, 18.50000000000000355, 0.000000000000000000 ) ) ;
#549 = VECTOR ( 'NONE', #451, 1000.000000000000000 ) ;
#550 = DIRECTION ( 'NONE',  ( 1.000000000000000000, 0.000000000000000000, 0.000000000000000000 ) ) ;
#551 = AXIS2_PLACEMENT_3D ( 'NONE', #406, #596, #403 ) ;
#552 = ORIENTED_EDGE ( 'NONE', *, *, #232, .F. ) ;
#553 = VECTOR ( 'NONE', #455, 1000.000000000000000 ) ;
#554 = CARTESIAN_POINT ( 'NONE',  ( -8.000000000000000000, -15.50000000000000000, 3.000000000000000000 ) ) ;
#555 = ORIENTED_EDGE ( 'NONE', *, *, #415, .T. ) ;
#556 = FACE_OUTER_BOUND ( 'NONE', #82, .T. ) ;
#557 = ORIENTED_EDGE ( 'NONE', *, *, #574, .T. ) ;
#558 = DIRECTION ( 'NONE',  ( -0.000000000000000000, -0.000000000000000000, -1.000000000000000000 ) ) ;
#559 = EDGE_CURVE ( 'NONE', #444, #569, #359, .T. ) ;
#560 = FACE_OUTER_BOUND ( 'NONE', #369, .T. ) ;
#561 = EDGE_LOOP ( 'NONE', ( #222, #504, #439, #55 ) ) ;
#562 = ADVANCED_FACE ( 'NONE', ( #221, #498, #65 ), #7, .T. ) ;
#563 = VECTOR ( 'NONE', #314, 1000.000000000000000 ) ;
#564 = ORIENTED_EDGE ( 'NONE', *, *, #449, .F. ) ;
#565 = FACE_OUTER_BOUND ( 'NONE', #263, .T. ) ;
#566 = PLANE ( 'NONE',  #81 ) ;
#567 = ORIENTED_EDGE ( 'NONE', *, *, #156, .F. ) ;
#568 = CARTESIAN_POINT ( 'NONE',  ( -1.750000000000000444, -2.529805069132844830E-16, 3.000000000000000000 ) ) ;
#569 = VERTEX_POINT ( 'NONE', #489 ) ;
#570 = ORIENTED_EDGE ( 'NONE', *, *, #582, .T. ) ;
#571 = VECTOR ( 'NONE', #278, 1000.000000000000000 ) ;
#572 =( NAMED_UNIT ( * ) SI_UNIT ( $, .STERADIAN. ) SOLID_ANGLE_UNIT ( ) );
#573 = EDGE_LOOP ( 'NONE', ( #63, #325, #360, #386 ) ) ;
#574 = EDGE_CURVE ( 'NONE', #27, #412, #287, .T. ) ;
#575 = DIRECTION ( 'NONE',  ( 0.000000000000000000, -0.000000000000000000, -1.000000000000000000 ) ) ;
#576 = ADVANCED_FACE ( 'NONE', ( #10 ), #196, .T. ) ;
#577 = ORIENTED_EDGE ( 'NONE', *, *, #559, .T. ) ;
#578 = FACE_BOUND ( 'NONE', #308, .T. ) ;
#579 = AXIS2_PLACEMENT_3D ( 'NONE', #141, #532, #426 ) ;
#580 = DIRECTION ( 'NONE',  ( 1.678764654171103751E-16, -1.000000000000000000, 0.000000000000000000 ) ) ;
#581 = DIRECTION ( 'NONE',  ( -0.000000000000000000, 0.000000000000000000, 1.000000000000000000 ) ) ;
#582 = EDGE_CURVE ( 'NONE', #157, #422, #210, .T. ) ;
#583 = CARTESIAN_POINT ( 'NONE',  ( -2.999999999999997335, 18.50000000000000355, 3.000000000000000000 ) ) ;
#584 = CARTESIAN_POINT ( 'NONE',  ( -1.749999999999999556, -6.000000000000000000, 3.000000000000000000 ) ) ;
#585 = LINE ( 'NONE', #547, #173 ) ;
#586 = DIRECTION ( 'NONE',  ( -0.000000000000000000, -0.000000000000000000, -1.000000000000000000 ) ) ;
#587 = CIRCLE ( 'NONE', #603, 3.000000000000001332 ) ;
#588 = DIRECTION ( 'NONE',  ( 1.000000000000000000, 6.308085367188392213E-16, -0.000000000000000000 ) ) ;
#589 = EDGE_CURVE ( 'NONE', #470, #365, #613, .T. ) ;
#590 = DIRECTION ( 'NONE',  ( -1.000000000000000000, 0.000000000000000000, 0.000000000000000000 ) ) ;
#591 = LINE ( 'NONE', #261, #274 ) ;
#592 = CARTESIAN_POINT ( 'NONE',  ( 1.750000000000000444, -6.000000000000000000, 0.000000000000000000 ) ) ;
#593 = EDGE_LOOP ( 'NONE', ( #473, #32, #383, #12 ) ) ;
#594 = PLANE ( 'NONE',  #184 ) ;
#595 = VECTOR ( 'NONE', #80, 1000.000000000000000 ) ;
#596 = DIRECTION ( 'NONE',  ( -2.168404344971009361E-16, 1.000000000000000000, 0.000000000000000000 ) ) ;
#597 = AXIS2_PLACEMENT_3D ( 'NONE', #198, #527, #428 ) ;
#598 = PLANE ( 'NONE',  #417 ) ;
#599 = ORIENTED_EDGE ( 'NONE', *, *, #616, .T. ) ;
#600 = FACE_OUTER_BOUND ( 'NONE', #113, .T. ) ;
#601 = ORIENTED_EDGE ( 'NONE', *, *, #199, .F. ) ;
#602 = CARTESIAN_POINT ( 'NONE',  ( 0.000000000000000000, -6.000000000000000000, 3.000000000000000000 ) ) ;
#603 = AXIS2_PLACEMENT_3D ( 'NONE', #472, #305, #107 ) ;
#604 = CARTESIAN_POINT ( 'NONE',  ( 2.168404344971009262E-15, -10.00000000000000000, 0.000000000000000000 ) ) ;
#605 = EDGE_LOOP ( 'NONE', ( #564, #187, #283, #163 ) ) ;
#606 = CIRCLE ( 'NONE', #128, 1.750000000000000000 ) ;
#607 = ORIENTED_EDGE ( 'NONE', *, *, #156, .T. ) ;
#608 = EDGE_CURVE ( 'NONE', #75, #410, #154, .T. ) ;
#609 = VERTEX_POINT ( 'NONE', #355 ) ;
#610 = DIRECTION ( 'NONE',  ( -0.000000000000000000, -0.000000000000000000, -1.000000000000000000 ) ) ;
#611 = EDGE_LOOP ( 'NONE', ( #124, #454 ) ) ;
#612 = CARTESIAN_POINT ( 'NONE',  ( -1.750000000000000666, 12.50000000000000000, 3.000000000000000000 ) ) ;
#613 = LINE ( 'NONE', #150, #25 ) ;
#614 = VERTEX_POINT ( 'NONE', #540 ) ;
#615 = CIRCLE ( 'NONE', #329, 1.750000000000000222 ) ;
#616 = EDGE_CURVE ( 'NONE', #444, #129, #587, .T. ) ;
#617 = UNCERTAINTY_MEASURE_WITH_UNIT (LENGTH_MEASURE( 1.000000000000000082E-05 ), #47, 'distance_accuracy_value', 'NONE');
#618 = CARTESIAN_POINT ( 'NONE',  ( 1.749999999999997113, 12.50000000000000000, 0.000000000000000000 ) ) ;
ENDSEC;
END-ISO-10303-21;
